PathFileType	4	(X/Y/Z)	/Users/itak/Documents/Research/Walk-IL/dataset/trc/00533_00183.trc
DataRate	CameraRate	NumFrames	NumMarkers	Units	OrigDataRate	OrigDataStartFrame	OrigNumFrames
100.000000	100.000000	4	53	mm	100.000000	261	522
Frame#	Time	RPSI			LPSI			L3			STRN			T10			C7			CLAV			RBAK			LBAK			LSHO			LUPA			LAEL			LAOL			LWTS			LWPS			LFRA			LIFD			LHPS			LHTS			RSHO			RUPA			RAEL			RAOL			RWTS			RWPS			RFRA			RIFD			RHTS			RHPS			RBHD			LFHD			RFHD			LBHD			LHIP			RHIP			RASI			LASI			LKNE			LTHI			LANK			LTIP			LTOE			LMT1			LMT5			LHEE			RKNE			RTHI			RANK			RTIP			RTOE			RMT1			RMT5			RHEE			
		X1	Y1	Z1	X2	Y2	Z2	X3	Y3	Z3	X4	Y4	Z4	X5	Y5	Z5	X6	Y6	Z6	X7	Y7	Z7	X8	Y8	Z8	X9	Y9	Z9	X10	Y10	Z10	X11	Y11	Z11	X12	Y12	Z12	X13	Y13	Z13	X14	Y14	Z14	X15	Y15	Z15	X16	Y16	Z16	X17	Y17	Z17	X18	Y18	Z18	X19	Y19	Z19	X20	Y20	Z20	X21	Y21	Z21	X22	Y22	Z22	X23	Y23	Z23	X24	Y24	Z24	X25	Y25	Z25	X26	Y26	Z26	X27	Y27	Z27	X28	Y28	Z28	X29	Y29	Z29	X30	Y30	Z30	X31	Y31	Z31	X32	Y32	Z32	X33	Y33	Z33	X34	Y34	Z34	X35	Y35	Z35	X36	Y36	Z36	X37	Y37	Z37	X38	Y38	Z38	X39	Y39	Z39	X40	Y40	Z40	X41	Y41	Z41	X42	Y42	Z42	X43	Y43	Z43	X44	Y44	Z44	X45	Y45	Z45	X46	Y46	Z46	X47	Y47	Z47	X48	Y48	Z48	X49	Y49	Z49	X50	Y50	Z50	X51	Y51	Z51	X52	Y52	Z52	X53	Y53	Z53	

262	2.61	-360.4703674316406	951.6605834960938	24.89773178100586	-290.4229431152344	959.1263427734375	-76.99320983886719	-320.7807006835938	1037.346923828125	-25.49596214294434	-119.1795120239258	1195.928833007812	83.43901824951172	-328.8834838867188	1142.837158203125	-20.86125373840332	-288.0506286621094	1371.1796875	8.15859317779541	-149.9360809326172	1291.708374023438	70.71497344970703	-371.0619812011719	1249.653442382812	60.30868911743164	-273.8218383789062	1320.13720703125	-83.38146209716797	-156.9337768554688	1367.318237304688	-106.2737884521484	-145.5293884277344	1244.917236328125	-173.9322052001953	-133.0488586425781	1036.77734375	-206.5387725830078	-227.5044403076172	1028.918701171875	-175.4484558105469	-76.2431640625	842.8544921875	-155.2720642089844	-133.0666198730469	814.7489013671875	-224.8573760986328	-121.5285034179688	951.7716064453125	-209.8575134277344	-83.22238922119141	684.585693359375	-159.0662384033203	-115.2112655639648	758.933349609375	-214.1732482910156	-64.46797180175781	765.6297607421875	-174.5043487548828	-302.2324523925781	1362.288940429688	165.2256927490234	-345.9012451171875	1295.092895507812	205.3721923828125	-379.9677734375	1028.601440429688	235.0635986328125	-400.5267028808594	1016.056335449219	172.5871429443359	-301.2938232421875	818.8416748046875	266.4371337890625	-389.5892333984375	803.4950561523438	248.830810546875	-384.56494140625	974.7058715820312	241.7315826416016	-312.9747619628906	659.2557373046875	261.7350769042969	-313.8444519042969	724.6685791015625	289.9455871582031	-378.0780029296875	728.2081298828125	260.7119445800781	-299.6338806152344	1517.744018554688	92.49312591552734	-133.1487274169922	1594.313110351562	11.70267295837402	-189.6007690429688	1593.673828125	125.9127349853516	-241.5890350341797	1511.654907226562	-55.59468841552734	-126.104362487793	893.035888671875	-128.8893890380859	-330.9691772460938	855.413330078125	189.1904754638672	-216.3235473632812	909.4628295898438	183.4591674804688	-87.61972045898438	928.5606689453125	-20.24249458312988	-129.643798828125	470.2155456542969	-41.65140533447266	-106.7034301757812	626.9730224609375	-74.14455413818359	-235.6115112304688	49.1939582824707	-40.65559768676758	-156.5933990478516	315.9670104980469	-44.87040710449219	-81.03504180908203	38.29278564453125	95.58640289306641	-165.9901885986328	41.51043319702148	92.46272277832031	-134.1112518310547	44.58599853515625	-4.140717506408691	-303.3014221191406	45.11920928955078	-2.960292100906372	-197.2301483154297	490.4558410644531	221.1255340576172	-281.3222351074219	734.82958984375	215.8415832519531	-420.7058410644531	151.2006683349609	91.2481689453125	-231.5984344482422	366.4415283203125	200.6093902587891	-268.877685546875	51.99546432495117	162.7601013183594	-284.893798828125	77.26805114746094	97.17251586914062	-361.3902587890625	88.37480926513672	160.0093688964844	-425.5982666015625	169.2705688476562	22.91750717163086	
263	2.62	-352.6502990722656	952.0287475585938	29.9414005279541	-282.9217834472656	959.3091430664062	-72.12600708007812	-312.8596496582031	1037.582275390625	-21.08091735839844	-110.9781723022461	1196.1689453125	87.56101989746094	-320.7004089355469	1142.95458984375	-16.62577629089355	-279.9139404296875	1371.355590820312	12.22313117980957	-141.7492218017578	1291.998779296875	74.86566162109375	-363.0182800292969	1249.93017578125	64.16104125976562	-265.5635986328125	1320.263671875	-79.29575347900391	-148.7844390869141	1367.662231445312	-102.1025924682617	-136.7173309326172	1245.406372070312	-169.8447418212891	-122.2380065917969	1037.236572265625	-202.1136932373047	-217.1302490234375	1028.850830078125	-171.9479064941406	-64.42568969726562	844.1025390625	-149.9079132080078	-120.0517044067383	815.3546752929688	-220.1552581787109	-110.1392288208008	952.5327758789062	-205.2258453369141	-69.77615356445312	685.7945556640625	-153.5812072753906	-101.759895324707	759.8010864257812	-209.2780914306641	-51.71982192993164	766.9414672851562	-168.9275360107422	-294.2863464355469	1362.444702148438	169.1988372802734	-338.4043273925781	1295.40576171875	208.9287109375	-375.3655090332031	1029.22900390625	237.0524139404297	-395.1173400878906	1016.929748535156	174.2559051513672	-297.9068603515625	819.2928466796875	269.3426818847656	-385.8677673339844	803.9149169921875	250.3480834960938	-380.4872131347656	975.3955688476562	243.6060943603516	-309.1932373046875	659.7615356445312	264.5079650878906	-310.7535400390625	725.16162109375	292.7032165527344	-374.4535827636719	728.5712890625	262.3846130371094	-291.228515625	1518.439697265625	96.44473266601562	-123.654052734375	1594.139526367188	17.10018157958984	-180.8706512451172	1593.4052734375	130.9564971923828	-232.2870178222656	1512.599365234375	-51.27947998046875	-119.1233444213867	892.8339233398438	-125.1747512817383	-321.7981872558594	856.5158081054688	194.7367553710938	-207.5648193359375	910.0440673828125	187.3822631835938	-79.56610107421875	928.3294067382812	-16.87568092346191	-126.6686096191406	469.5068054199219	-41.42615127563477	-102.2978744506836	626.4207153320312	-72.46066284179688	-235.6518249511719	49.14015960693359	-40.63549423217773	-155.4237976074219	315.6242065429688	-44.81473159790039	-80.84778594970703	38.24226760864258	95.29435729980469	-165.8865203857422	41.57316970825195	92.34119415283203	-133.9688720703125	44.38994979858398	-4.32171106338501	-303.3177185058594	45.17353820800781	-3.03766393661499	-182.8925323486328	493.3238830566406	227.6135711669922	-270.553955078125	736.6553955078125	221.8363800048828	-395.6585998535156	143.1069793701172	105.8965301513672	-214.0198669433594	367.2698364257812	209.4317016601562	-240.7122802734375	51.63164138793945	181.9735260009766	-257.4397888183594	73.89028930664062	115.1731262207031	-334.4815063476562	85.10559844970703	177.2574157714844	-400.7727966308594	158.2589569091797	36.80725479125977	
264	2.63	-344.7783813476562	952.2354736328125	34.99617004394531	-275.3667602539062	959.336181640625	-67.24770355224609	-304.9343566894531	1037.615478515625	-16.67014312744141	-102.7876434326172	1196.184692382812	91.70541381835938	-312.5274963378906	1142.877075195312	-12.40972805023193	-271.7803039550781	1371.322143554688	16.31580352783203	-133.5594177246094	1292.064819335938	79.02957916259766	-354.9898071289062	1250.0009765625	68.02799224853516	-257.3258666992188	1320.184326171875	-75.18703460693359	-140.6475524902344	1367.770385742188	-97.93028259277344	-127.9890899658203	1245.65185546875	-165.7756652832031	-111.5032577514648	1037.465209960938	-197.8047485351562	-206.7799682617188	1028.53125	-168.4421081542969	-52.52634048461914	845.2281494140625	-144.6045989990234	-107.0323181152344	815.769775390625	-215.4171752929688	-98.80693817138672	953.0740356445312	-200.6680145263672	-56.06105041503906	686.9069213867188	-148.0802459716797	-88.26155090332031	760.498046875	-204.3086853027344	-38.82703399658203	768.1716918945312	-163.3885650634766	-286.3436889648438	1362.370361328125	173.2150573730469	-330.8773803710938	1295.466674804688	212.5251312255859	-370.6504211425781	1029.638671875	239.0132598876953	-389.504638671875	1017.547485351562	175.9138031005859	-294.4247131347656	819.5394897460938	272.3758850097656	-381.99072265625	804.1600341796875	251.8733062744141	-376.2964477539062	975.86474609375	245.4719696044922	-305.4150390625	660.05859375	267.4460144042969	-307.6234130859375	725.4575805664062	295.5845947265625	-370.7362060546875	728.767333984375	264.1040649414062	-282.8292541503906	1518.892822265625	100.4468002319336	-114.2328491210938	1593.76220703125	22.50449562072754	-172.1644439697266	1592.91748046875	136.0226287841797	-223.0319366455078	1513.322265625	-46.93098068237305	-112.0793533325195	892.4772338867188	-121.365837097168	-312.6190185546875	857.3797607421875	200.2127227783203	-198.7908325195312	910.3895263671875	191.3934631347656	-71.52227020263672	927.9031372070312	-13.409743309021	-123.5563430786133	468.7376708984375	-41.06602096557617	-97.77712249755859	625.7922973632812	-70.67913818359375	-235.6717224121094	49.09830856323242	-40.58183288574219	-154.1651153564453	315.2580261230469	-44.61130905151367	-80.60231018066406	38.13921356201172	95.002197265625	-165.7592010498047	41.60525131225586	92.24249267578125	-133.8110809326172	44.1694221496582	-4.473299026489258	-303.3197326660156	45.23556137084961	-3.103747129440308	-168.9798126220703	495.8809509277344	233.8407745361328	-259.9573059082031	738.231201171875	227.7088775634766	-370.0040283203125	134.7196502685547	120.7993392944336	-196.6520690917969	367.8062133789062	218.1464691162109	-212.0212097167969	51.54464721679688	201.0378112792969	-229.4407043457031	70.72454833984375	133.1583251953125	-307.0093688964844	81.79280853271484	194.5253601074219	-375.3331298828125	146.9665679931641	51.05881500244141	
265	2.64	-336.8528747558594	952.281005859375	40.05875015258789	-267.7603149414062	959.2003173828125	-62.36575698852539	-297.0057373046875	1037.447875976562	-12.26398849487305	-94.60348510742188	1195.974609375	95.87602996826172	-304.3750610351562	1142.62158203125	-8.222469329833984	-263.6289672851562	1371.0908203125	20.44059562683105	-125.368034362793	1291.901977539062	83.21345520019531	-346.9674682617188	1249.88232421875	71.91447448730469	-249.0954437255859	1319.911254882812	-71.05245208740234	-132.5024566650391	1367.643432617188	-93.74465942382812	-119.3162689208984	1245.649047851562	-161.7018890380859	-100.8708648681641	1037.460083007812	-193.5959930419922	-196.4405212402344	1027.960693359375	-164.9192047119141	-40.55558013916016	846.2222290039062	-139.3589172363281	-94.02369689941406	815.9973754882812	-210.6322479248047	-87.53211212158203	953.3914184570312	-196.1577301025391	-42.12031555175781	687.9141845703125	-142.59033203125	-74.73363494873047	761.0232543945312	-199.2812194824219	-25.80410385131836	769.3140869140625	-157.8918609619141	-278.38916015625	1362.077270507812	177.2815551757812	-323.3081665039062	1295.285400390625	216.1749420166016	-365.7814331054688	1029.839721679688	240.9585418701172	-383.6659240722656	1017.921447753906	177.5789489746094	-290.8307800292969	819.5714721679688	275.5162963867188	-377.9460144042969	804.2393798828125	253.4121551513672	-371.9443054199219	976.1163940429688	247.3332061767578	-301.6715393066406	660.1417846679688	270.527587890625	-304.4507141113281	725.549560546875	298.5654296875	-366.9276428222656	728.8067626953125	265.8687133789062	-274.4300842285156	1519.093872070312	104.5146331787109	-104.8934173583984	1593.195190429688	27.9078311920166	-163.4855804443359	1592.226806640625	141.1046295166016	-213.8259887695312	1513.803466796875	-42.53371429443359	-104.9652938842773	891.9568481445312	-117.4616394042969	-303.4652404785156	858.0010986328125	205.5942230224609	-189.9903259277344	910.5196533203125	195.4890441894531	-63.4912109375	927.2928466796875	-9.849909782409668	-120.3162384033203	467.9170227050781	-40.50680923461914	-93.11996459960938	625.080322265625	-68.73420715332031	-235.6712951660156	49.07889175415039	-40.49041748046875	-152.7990264892578	314.8671569824219	-44.22989273071289	-80.30382537841797	37.98818206787109	94.71889495849609	-165.6132049560547	41.59969711303711	92.17588806152344	-133.6431427001953	43.92633819580078	-4.582563877105713	-303.3120422363281	45.30215072631836	-3.149919748306274	-155.5495147705078	498.0928649902344	239.8281555175781	-249.5820159912109	739.5338745117188	233.4647827148438	-343.74853515625	126.1438522338867	135.9586791992188	-179.5505218505859	368.0821228027344	226.7884216308594	-182.8301544189453	51.81172943115234	219.7685394287109	-200.9254913330078	67.90537261962891	150.9903106689453	-278.9740600585938	78.49118041992188	211.7395629882812	-349.3438415527344	135.5725402832031	65.70461273193359	
